<svg width="32" height="32" viewBox="0 0 32 32" fill="none" xmlns="http://www.w3.org/2000/svg">
<path d="M24 20L22.59 21.41L26.17 25H10C8.93913 25 7.92172 24.5786 7.17157 23.8284C6.42143 23.0783 6 22.0609 6 21C6 19.9391 6.42143 18.9217 7.17157 18.1716C7.92172 17.4214 8.93913 17 10 17H22C23.5913 17 25.1174 16.3679 26.2426 15.2426C27.3679 14.1174 28 12.5913 28 11C28 9.4087 27.3679 7.88258 26.2426 6.75736C25.1174 5.63214 23.5913 5 22 5H5.83L9.41 1.41L8 0L2 6L8 12L9.41 10.59L5.83 7H22C23.0609 7 24.0783 7.42143 24.8284 8.17157C25.5786 8.92172 26 9.93913 26 11C26 12.0609 25.5786 13.0783 24.8284 13.8284C24.0783 14.5786 23.0609 15 22 15H10C8.4087 15 6.88258 15.6321 5.75736 16.7574C4.63214 17.8826 4 19.4087 4 21C4 22.5913 4.63214 24.1174 5.75736 25.2426C6.88258 26.3679 8.4087 27 10 27H26.17L22.59 30.59L24 32L30 26L24 20Z" fill="white" fill-opacity="0.870588"/>
</svg>
