<svg width="32" height="32" viewBox="0 0 32 32" fill="none" xmlns="http://www.w3.org/2000/svg">
<path d="M30.0528 8.56016C29.8944 7.92738 29.5718 7.34759 29.1177 6.87937C28.6635 6.41115 28.0938 6.07108 27.4661 5.8935C25.1728 5.3335 15.9995 5.3335 15.9995 5.3335C15.9995 5.3335 6.82613 5.3335 4.53279 5.94683C3.90512 6.12441 3.33543 6.46448 2.88126 6.9327C2.42708 7.40092 2.10451 7.98071 1.94613 8.6135C1.52641 10.9409 1.32111 13.3019 1.33279 15.6668C1.31783 18.0496 1.52315 20.4286 1.94613 22.7735C2.12074 23.3866 2.45054 23.9444 2.90365 24.3928C3.35677 24.8412 3.91789 25.1652 4.53279 25.3335C6.82613 25.9468 15.9995 25.9468 15.9995 25.9468C15.9995 25.9468 25.1728 25.9468 27.4661 25.3335C28.0938 25.1559 28.6635 24.8158 29.1177 24.3476C29.5718 23.8794 29.8944 23.2996 30.0528 22.6668C30.4693 20.3569 30.6746 18.0139 30.6661 15.6668C30.6811 13.2841 30.4758 10.9051 30.0528 8.56016V8.56016Z" stroke="#0E0E0E" stroke-width="2" stroke-linecap="round" stroke-linejoin="round"/>
<path d="M13 20.0266L20.6667 15.6666L13 11.3066V20.0266Z" stroke="#0E0E0E" stroke-width="2" stroke-linecap="round" stroke-linejoin="round"/>
</svg>
